<?xml version='1.0' encoding='utf-8'?>
<svg xmlns="http://www.w3.org/2000/svg" version="1.1" id="Layer_1" x="0px" y="0px" viewBox="0 0 5000 442.0175" enable-background="new 0 0 5000 442.0175"> <g> <path d="M2416.6335,332.2001c-24.2786,30.8646-26.0503,59.2932-5.5232,88.5995c-0.3174,0.3173,15.8799,21.368,21.6265,21.217 c15.8723-0.3508,29.0002-16.0014,32.1296-38.3026c6.0723-43.266,94.6892-38.5971,94.6892,4.9892 c0,28.2092,23.2131,31.9171,49.708,7.9391c44.2024-40.0016,3.1951-103.7795-76.1606-118.4514 C2473.7688,287.2198,2445.5291,295.4651,2416.6335,332.2001z"/> <polygon points="1955.9026,411.4032 1955.9026,411.402 1955.9014,411.402 "/> <path d="M1981.0703,26.0666c-18.9536-24.5987-26.7753-19.4441-36.2656,23.9064c-11.4381,52.2447,28.8839,107.2433,93.2825,127.2377 c18.5571,5.7613,21.6277,3.2104,21.6277-17.9633c0-17.806,5.0679-24.6785,18.1956-24.6785c10.009,0,20.823,6.842,24.031,15.2047 c10.842,28.2491,6.0181,125.0552-7.1248,143.0291c-15.782,21.5843-38.7944,10.72-32.0356-15.1249 c2.6084-9.9714,1.2813-20.269-2.9463-22.8821c-13.7767-8.5152-74.7455,22.8422-95.3547,49.0426 c-22.3341,28.3946-27.1661,88.975-8.5774,107.5637c15.7678,15.7702,26.9126,14.4748,26.9126-3.1224 c0-17.244,37.574-33.4049,77.666-33.4049c21.6724,0,32.8406-7.3606,47.3997-31.2401 c15.6624-25.6864,19.084-48.5016,19.084-128.3442c0.0305-85.2003-2.6543-101.1089-21.9048-129.7664 c-18.7058-27.8419-28.2771-33.0893-64.8831-35.5698C2009.6691,47.8868,1992.5542,40.9697,1981.0703,26.0666z"/> <path d="M2913.4199,76.2427c-60.4456,47.5453-62.1069,225.9964-2.6589,285.4433c17.8262,17.8271,33.1411,22.8035,70.1799,22.8035 c40.0825,0,48.1919,3.1153,52.6694,20.2373v0.0012c9.1582,35.0207,30.4163,14.5992,33.4895-32.1717 c2.3513-35.8045-1.2556-47.9901-19.2246-64.9477c-52.3435-49.3922-103.8254-59.0832-103.8254-19.5438 c0,21.6723-18.7458,25.7733-36.5273,7.9919c-13.3953-13.3941-15.5283-130.6828-2.7456-150.8719 c11.9639-18.8949,39.2729-5.7097,39.2729,18.9618c0,17.6089,3.803,19.6306,26.4338,14.0547 c26.7131-6.5815,83.1387-54.1737,99.2317-83.6971c11.0051-20.1892,0.6206-75.2828-14.1897-75.2828 c-6.0945,0-18.4878,8.6513-27.5417,19.2246c-11.2034,13.0855-28.3545,19.2246-53.7078,19.2246 C2952.0217,57.6704,2927.5264,65.1448,2913.4199,76.2427z"/> <path d="M275.6821,88.1525c-41.7747,4.8109-53.4064,36.5602-49.4263,134.9151c2.6389,65.1883,7.3876,88.1138,21.4834,103.688 c24.2174,26.7601,49.2432,21.2147,44.4652-9.8528c-7.2867-47.3787-5.6756-178.1894,2.5193-204.7195 C302.7038,86.3584,301.7463,85.151,275.6821,88.1525z"/> <path d="M4736.2554,99.7185c-32.9639-21.5984-51.2085-5.7507-34.812,30.2356c13.3872,29.3814,14.874,131.5663,2.5396,174.573 c-4.8027,16.75-6.2451,32.9414-3.2036,35.9828c12.0083,12.0084,40.6294,4.5386,50.0493-13.0632 c5.4727-10.226,9.9502-62.0319,9.9502-115.1261C4760.7788,119.4406,4759.8496,115.1789,4736.2554,99.7185z"/> <path d="M2286.4106,269.1415c-31.855,0-40.0168,16.3639-19.4829,39.0547c27.104,29.9493,91.1787,25.3156,128.2024-9.2685 c25.4939-23.8149,29.8542-34.7262,29.8542-74.7091c0-89.848-79.1819-147.556-142.0469-103.5237 c-30.0913,21.0774-28.3748,52.3233,2.8723,52.3233c31.8032,0,48.1509,33.3967,34.2485,69.9616 C2312.9443,261.6906,2303.3613,269.1415,2286.4106,269.1415z"/> <path d="M2623.2058,127.9676c-22.1746,17.745-28.5964,31.7986-32.3433,70.7958c-4.3789,45.5694-2.3994,51.1758,31.1885,88.3543 c2.7234,0,27.9861,39.6978,63.9856,39.6978c48.8232,0,94.6272-60.6672,46.718-61.877 c-16.4343-0.4154-27.9722-9.1641-37.0928-28.1259c-18.7505-38.9797-2.7644-71.1232,37.3816-75.1631l30.3025-3.0496 l-20.8884-26.4339C2715.3101,97.8094,2663.1875,95.9754,2623.2058,127.9676z"/> <path d="M2981.1145,211.4688c-38.5813,0-23.4998,19.2246,5.0645,19.2246c11.9731,0,56.707,15.1389,99.405,33.6431 c69.5452,30.1371,86.4968,33.6279,162.6985,33.4929c78.8076-0.1396,279.9319-25.2054,392.6597-48.9358 c26.4338-5.5653,210.2695-12.4226,408.5237-15.2387c442.2993-6.2834,556.9526,5.1547,570.4888,56.9159v-0.0035 c7.3091,27.951,28.1084,15.8606,37.9893-22.0818c10.1885-39.1275,3.6646-111.9732-11.3745-127.0113 c-7.7866-7.7865-15.8125-5.0995-29.8848,10.0054c-10.583,11.3583-35.4785,24.0953-55.3237,28.3031 c-47.3062,10.0351-899.7693,7.3078-958.8679,7.2843c-135.23-27.5914-237.1521-52.497-352.4727-52.497 c-92.5386,0-97.1921,1.0666-167.7488,38.4493C3042.3567,194.1661,2996.8367,211.4688,2981.1145,211.4688z"/> <path d="M420.8138,167.0165c-25.4529-3.4556-45.6151-13.7543-59.6511-30.4727c-11.661-13.8893-23.3397-23.1156-25.9528-20.5025 c-11.8593,11.8593-16.3663,130.9796-5.9702,157.7961l11.1365,28.7278c41.8597-55.4943,34.5731-71.2656,461.8139-78.5648 c337.2762-5.7625,478.05,2.5791,700.0099,41.4778c83.7382,14.6743,181.5886,25.0294,245.1143,25.9422 c100.9458,1.448,108.676,0.1068,170.6445-29.6043c35.7001-17.1173,74.6293-31.1732,86.5109-31.2694 c11.8805-0.081,27.8643-4.1092,35.5194-8.9517c10.7224-6.7833,7.411-10.1533-14.4185-14.6802 c-15.5848-3.2315-59.0762-20.831-96.6489-39.1099c-64.5652-31.4125-73.8091-33.2348-168.5372-33.2348 c-66.1199,0-149.1833,8.71-244.0886,25.5961c-135.9653,24.1927-164.1089,25.7874-512.7128,29.0634 C668.7348,192.3767,583.7575,189.137,420.8138,167.0165z"/> <path d="M2182.9104,166.5518c-1.6721-14.131-8.4485-27.4676-15.0569-29.6372c-8.9856-2.951-12.0154,16.8591-12.0154,78.5601 c0,66.9296,2.7222,82.505,14.4185,82.505c10.0266,0,14.4185-10.0876,14.4185-33.1163c0-32.688,0.5916-33.155,45.6587-36.0462 c32.8745-2.1097,45.6584-6.9675,45.6584-17.3484c0-13.8576-7.3828-15.9509-64.2449-18.2026 C2191.2742,192.4553,2185.3252,186.944,2182.9104,166.5518z"/> <path d="M2819.031,168.7578c-4.1772,24.3101-9.9739,28.9696-41.1692,33.0987c-37.5681,4.974-49.8101,21.9281-19.3584,26.8082 c56.4324,9.0444,60.585,11.8324,60.585,40.6623c0-2.1531-2.584,28.6516,14.8069,28.6516c12.3323,0,14.3411-12.8532,12.0154-76.9619 C2843.124,144.1802,2828.2327,115.2282,2819.031,168.7578z"/> <path d="M4872.7339,250.5757c-15.5903,16.6158-41.9712,16.49-57.9121,3.5173c-31.4214-25.5716-10.9902-78.4091,29.4604-76.1902 C4879.1655,179.8164,4899.1401,222.4326,4872.7339,250.5757z"/> <path d="M4957.7944,181.8215c18.8486-0.468,35.7939,12.832,40.6899,29.7021c4.8101,16.5725-2.1421,35.8661-16.4175,45.5616 c-14.2749,9.6954-34.7725,9.0456-48.4043-1.5344C4903.6084,232.2255,4920.627,182.7444,4957.7944,181.8215z"/> <path d="M16.9354,173.4791c-13.1473,9.7922-19.0592,32.3363-16.2507,47.216c3.3828,17.9225,19.1908,33.3276,37.4013,34.3472 c16.6622,0.9329,33.0349-10.422,38.782-26.0895c5.7471-15.6675,0.9561-34.4199-11.0233-46.0413 C53.5788,171.0134,31.173,162.8748,16.9354,173.4791z"/> <path d="M111.2371,210.5119c3.4621-30.4662,42.6715-48.8628,68.0526-26.2011c12.806,11.434,17.1314,31.3728,10.2143,47.0854 c-6.9171,15.7125-24.5435,25.9877-41.6245,24.2646C126.7937,253.5337,108.6096,233.6335,111.2371,210.5119z"/> <path d="M2534.9219,228.8506c-9.0457,28.2842-43.8557,33.068-61.1282,12.789c-21.8252-25.6237,2.8489-65.6902,35.5264-57.7982 C2527.3315,188.1914,2541.5361,208.1695,2534.9219,228.8506z"/> <path d="M2500.1064,55.9268c-26.7039-2.5627-32.3618-7.343-34.9092-29.4929C2462.8577,6.0992,2457.0293,0,2439.9402,0 c-63.7495,0-57.9297,108.2325,7.2305,134.4798v-0.0012c28.323,11.4099,76.9924,11.7232,106.03,0.6829 c58.5059-22.2438,82.6143-86.525,45.1621-120.4192c-20.7734-18.7999-51.0654-13.5995-43.0137,7.3841 C2563.1462,42.447,2535.552,59.3296,2500.1064,55.9268z"/> </g> </svg>